<mxfile host="www.draw.io" modified="2020-03-10T06:56:53.789Z" agent="Mozilla/5.0 (Macintosh; Intel Mac OS X 10_14_4) AppleWebKit/537.36 (KHTML, like Gecko) Chrome/79.0.3945.130 Safari/537.36" etag="fqLqEny3gxDSksMcAtUH" version="12.8.2" type="github">
  <diagram id="KRVBuScQWfaDWm9XU1nD" name="第 1 页">
    <mxGraphModel dx="932" dy="508" grid="1" gridSize="10" guides="1" tooltips="1" connect="1" arrows="1" fold="1" page="1" pageScale="1" pageWidth="827" pageHeight="1169" math="0" shadow="0">
      <root>
        <mxCell id="0" />
        <mxCell id="1" parent="0" />
        <mxCell id="pa322UCceHFlI3Zd3KV8-10" value="" style="rounded=0;whiteSpace=wrap;html=1;" vertex="1" parent="1">
          <mxGeometry x="140" y="470" width="340" height="130" as="geometry" />
        </mxCell>
        <mxCell id="pa322UCceHFlI3Zd3KV8-11" style="edgeStyle=orthogonalEdgeStyle;rounded=0;orthogonalLoop=1;jettySize=auto;html=1;exitX=0.5;exitY=1;exitDx=0;exitDy=0;entryX=0.5;entryY=0;entryDx=0;entryDy=0;" edge="1" parent="1" source="pa322UCceHFlI3Zd3KV8-4" target="pa322UCceHFlI3Zd3KV8-10">
          <mxGeometry relative="1" as="geometry" />
        </mxCell>
        <mxCell id="pa322UCceHFlI3Zd3KV8-4" value="" style="rounded=0;whiteSpace=wrap;html=1;" vertex="1" parent="1">
          <mxGeometry x="140" y="240" width="340" height="150" as="geometry" />
        </mxCell>
        <mxCell id="pa322UCceHFlI3Zd3KV8-1" value="tomcat" style="image;html=1;labelBackgroundColor=#ffffff;image=img/lib/clip_art/computers/Server_Tower_128x128.png" vertex="1" parent="1">
          <mxGeometry x="190" y="270" width="80" height="80" as="geometry" />
        </mxCell>
        <mxCell id="pa322UCceHFlI3Zd3KV8-2" value="tomcat" style="image;html=1;labelBackgroundColor=#ffffff;image=img/lib/clip_art/computers/Server_Tower_128x128.png" vertex="1" parent="1">
          <mxGeometry x="334" y="270" width="80" height="80" as="geometry" />
        </mxCell>
        <mxCell id="pa322UCceHFlI3Zd3KV8-5" style="edgeStyle=orthogonalEdgeStyle;rounded=0;orthogonalLoop=1;jettySize=auto;html=1;exitX=0.5;exitY=1;exitDx=0;exitDy=0;entryX=0.5;entryY=0;entryDx=0;entryDy=0;" edge="1" parent="1" source="pa322UCceHFlI3Zd3KV8-3" target="pa322UCceHFlI3Zd3KV8-4">
          <mxGeometry relative="1" as="geometry" />
        </mxCell>
        <mxCell id="pa322UCceHFlI3Zd3KV8-3" value="nginx负载均衡" style="image;html=1;labelBackgroundColor=#ffffff;image=img/lib/clip_art/networking/Print_Server_128x128.png" vertex="1" parent="1">
          <mxGeometry x="270" y="80" width="80" height="80" as="geometry" />
        </mxCell>
        <mxCell id="pa322UCceHFlI3Zd3KV8-6" value="mysql数据库" style="shape=cylinder;whiteSpace=wrap;html=1;boundedLbl=1;backgroundOutline=1;fillColor=#ffe6cc;strokeColor=#d79b00;" vertex="1" parent="1">
          <mxGeometry x="200" y="495" width="60" height="80" as="geometry" />
        </mxCell>
        <mxCell id="pa322UCceHFlI3Zd3KV8-7" value="redis缓存库" style="shape=cylinder;whiteSpace=wrap;html=1;boundedLbl=1;backgroundOutline=1;fillColor=#f8cecc;strokeColor=#b85450;" vertex="1" parent="1">
          <mxGeometry x="340" y="495" width="60" height="80" as="geometry" />
        </mxCell>
      </root>
    </mxGraphModel>
  </diagram>
</mxfile>
